<mxfile host="Electron" modified="2023-09-15T12:04:28.145Z" agent="Mozilla/5.0 (Windows NT 10.0; Win64; x64) AppleWebKit/537.36 (KHTML, like Gecko) draw.io/21.6.5 Chrome/114.0.5735.243 Electron/25.3.1 Safari/537.36" etag="ejRPr8BELViyHRpNzals" version="21.6.5" type="device">
  <diagram name="Страница — 1" id="wS0a-E_ivv_yOe_8BlFn">
    <mxGraphModel dx="1418" dy="828" grid="1" gridSize="10" guides="1" tooltips="1" connect="1" arrows="1" fold="1" page="1" pageScale="1" pageWidth="827" pageHeight="1169" math="0" shadow="0">
      <root>
        <mxCell id="0" />
        <mxCell id="1" parent="0" />
        <mxCell id="iGe3nFgzR7R-XXRQcmDe-5" value="танцор-споживач" style="shape=umlActor;verticalLabelPosition=bottom;verticalAlign=top;html=1;outlineConnect=0;" parent="1" vertex="1">
          <mxGeometry x="160" y="430" width="30" height="60" as="geometry" />
        </mxCell>
        <mxCell id="iGe3nFgzR7R-XXRQcmDe-6" value="підтримує зацікавленість в танцях" style="ellipse;whiteSpace=wrap;html=1;fontFamily=Times New Roman;" parent="1" vertex="1">
          <mxGeometry x="290" y="390" width="190" height="40" as="geometry" />
        </mxCell>
        <mxCell id="iGe3nFgzR7R-XXRQcmDe-7" value="підтримує фінансову стабільність" style="ellipse;whiteSpace=wrap;html=1;fontFamily=Times New Roman;" parent="1" vertex="1">
          <mxGeometry x="288.75" y="450" width="192.5" height="50" as="geometry" />
        </mxCell>
        <mxCell id="iGe3nFgzR7R-XXRQcmDe-8" value="контролює стан свого здоров&#39;я" style="ellipse;whiteSpace=wrap;html=1;fontFamily=Times New Roman;" parent="1" vertex="1">
          <mxGeometry x="290" y="520" width="195" height="50" as="geometry" />
        </mxCell>
        <mxCell id="iGe3nFgzR7R-XXRQcmDe-9" value="контролює стан повітря навколишнього середовища" style="ellipse;whiteSpace=wrap;html=1;fontFamily=Times New Roman;" parent="1" vertex="1">
          <mxGeometry x="550" y="555" width="220" height="60" as="geometry" />
        </mxCell>
        <mxCell id="iGe3nFgzR7R-XXRQcmDe-11" value="" style="endArrow=classic;html=1;rounded=0;exitX=0.045;exitY=0.25;exitDx=0;exitDy=0;exitPerimeter=0;entryX=1.015;entryY=0.6;entryDx=0;entryDy=0;entryPerimeter=0;dashed=1;" parent="1" source="iGe3nFgzR7R-XXRQcmDe-9" target="iGe3nFgzR7R-XXRQcmDe-8" edge="1">
          <mxGeometry width="50" height="50" relative="1" as="geometry">
            <mxPoint x="370" y="520" as="sourcePoint" />
            <mxPoint x="420" y="470" as="targetPoint" />
          </mxGeometry>
        </mxCell>
        <mxCell id="iGe3nFgzR7R-XXRQcmDe-12" value="include" style="text;html=1;align=center;verticalAlign=middle;resizable=0;points=[];autosize=1;strokeColor=none;fillColor=none;rotation=15;" parent="1" vertex="1">
          <mxGeometry x="500" y="538" width="60" height="30" as="geometry" />
        </mxCell>
        <mxCell id="iGe3nFgzR7R-XXRQcmDe-13" value="хореограф" style="shape=umlActor;verticalLabelPosition=bottom;verticalAlign=top;html=1;outlineConnect=0;" parent="1" vertex="1">
          <mxGeometry x="797" y="410" width="30" height="60" as="geometry" />
        </mxCell>
        <mxCell id="iGe3nFgzR7R-XXRQcmDe-14" value="" style="endArrow=classic;html=1;rounded=0;entryX=0.029;entryY=0.643;entryDx=0;entryDy=0;entryPerimeter=0;" parent="1" source="iGe3nFgzR7R-XXRQcmDe-5" target="iGe3nFgzR7R-XXRQcmDe-6" edge="1">
          <mxGeometry width="50" height="50" relative="1" as="geometry">
            <mxPoint x="370" y="520" as="sourcePoint" />
            <mxPoint x="420" y="470" as="targetPoint" />
          </mxGeometry>
        </mxCell>
        <mxCell id="iGe3nFgzR7R-XXRQcmDe-15" value="" style="endArrow=classic;html=1;rounded=0;entryX=0;entryY=0.5;entryDx=0;entryDy=0;" parent="1" source="iGe3nFgzR7R-XXRQcmDe-5" target="iGe3nFgzR7R-XXRQcmDe-7" edge="1">
          <mxGeometry width="50" height="50" relative="1" as="geometry">
            <mxPoint x="210" y="520" as="sourcePoint" />
            <mxPoint x="260" y="470" as="targetPoint" />
          </mxGeometry>
        </mxCell>
        <mxCell id="iGe3nFgzR7R-XXRQcmDe-16" value="" style="endArrow=classic;html=1;rounded=0;entryX=0.013;entryY=0.417;entryDx=0;entryDy=0;entryPerimeter=0;" parent="1" source="iGe3nFgzR7R-XXRQcmDe-5" target="iGe3nFgzR7R-XXRQcmDe-8" edge="1">
          <mxGeometry width="50" height="50" relative="1" as="geometry">
            <mxPoint x="370" y="520" as="sourcePoint" />
            <mxPoint x="420" y="470" as="targetPoint" />
          </mxGeometry>
        </mxCell>
        <mxCell id="iGe3nFgzR7R-XXRQcmDe-17" value="отримувати поради до танців" style="ellipse;whiteSpace=wrap;html=1;fontFamily=Times New Roman;" parent="1" vertex="1">
          <mxGeometry x="550" y="406.5" width="190" height="63.5" as="geometry" />
        </mxCell>
        <mxCell id="iGe3nFgzR7R-XXRQcmDe-18" value="include" style="text;html=1;align=center;verticalAlign=middle;resizable=0;points=[];autosize=1;strokeColor=none;fillColor=none;rotation=15;" parent="1" vertex="1">
          <mxGeometry x="490" y="400" width="60" height="30" as="geometry" />
        </mxCell>
        <mxCell id="iGe3nFgzR7R-XXRQcmDe-20" value="" style="endArrow=classic;html=1;rounded=0;exitX=-0.014;exitY=0.535;exitDx=0;exitDy=0;exitPerimeter=0;entryX=0.985;entryY=0.714;entryDx=0;entryDy=0;entryPerimeter=0;dashed=1;" parent="1" source="iGe3nFgzR7R-XXRQcmDe-17" target="iGe3nFgzR7R-XXRQcmDe-6" edge="1">
          <mxGeometry width="50" height="50" relative="1" as="geometry">
            <mxPoint x="370" y="520" as="sourcePoint" />
            <mxPoint x="420" y="470" as="targetPoint" />
          </mxGeometry>
        </mxCell>
        <mxCell id="iGe3nFgzR7R-XXRQcmDe-22" value="" style="endArrow=classic;html=1;rounded=0;entryX=1;entryY=0.5;entryDx=0;entryDy=0;" parent="1" source="iGe3nFgzR7R-XXRQcmDe-13" target="iGe3nFgzR7R-XXRQcmDe-17" edge="1">
          <mxGeometry width="50" height="50" relative="1" as="geometry">
            <mxPoint x="660" y="350" as="sourcePoint" />
            <mxPoint x="710" y="300" as="targetPoint" />
          </mxGeometry>
        </mxCell>
        <mxCell id="iGe3nFgzR7R-XXRQcmDe-23" value="отримувати сторонній контроль за здоров&#39;ям" style="ellipse;whiteSpace=wrap;html=1;fontFamily=Times New Roman;" parent="1" vertex="1">
          <mxGeometry x="540" y="477" width="220" height="60" as="geometry" />
        </mxCell>
        <mxCell id="iGe3nFgzR7R-XXRQcmDe-24" value="include" style="text;html=1;align=center;verticalAlign=middle;resizable=0;points=[];autosize=1;strokeColor=none;fillColor=none;rotation=-30;" parent="1" vertex="1">
          <mxGeometry x="480" y="500" width="60" height="30" as="geometry" />
        </mxCell>
        <mxCell id="iGe3nFgzR7R-XXRQcmDe-25" value="" style="endArrow=classic;html=1;rounded=0;exitX=0;exitY=0.5;exitDx=0;exitDy=0;entryX=0.983;entryY=0.429;entryDx=0;entryDy=0;entryPerimeter=0;dashed=1;" parent="1" source="iGe3nFgzR7R-XXRQcmDe-23" target="iGe3nFgzR7R-XXRQcmDe-8" edge="1">
          <mxGeometry width="50" height="50" relative="1" as="geometry">
            <mxPoint x="660" y="520" as="sourcePoint" />
            <mxPoint x="710" y="470" as="targetPoint" />
          </mxGeometry>
        </mxCell>
        <mxCell id="iGe3nFgzR7R-XXRQcmDe-26" value="" style="endArrow=classic;html=1;rounded=0;entryX=1;entryY=0;entryDx=0;entryDy=0;" parent="1" source="iGe3nFgzR7R-XXRQcmDe-13" target="iGe3nFgzR7R-XXRQcmDe-23" edge="1">
          <mxGeometry width="50" height="50" relative="1" as="geometry">
            <mxPoint x="660" y="520" as="sourcePoint" />
            <mxPoint x="710" y="470" as="targetPoint" />
          </mxGeometry>
        </mxCell>
        <mxCell id="iGe3nFgzR7R-XXRQcmDe-27" value="" style="endArrow=classic;html=1;rounded=0;exitX=0;exitY=0;exitDx=0;exitDy=0;entryX=0.988;entryY=0.64;entryDx=0;entryDy=0;entryPerimeter=0;dashed=1;dashPattern=8 8;" parent="1" source="iGe3nFgzR7R-XXRQcmDe-9" target="iGe3nFgzR7R-XXRQcmDe-7" edge="1">
          <mxGeometry width="50" height="50" relative="1" as="geometry">
            <mxPoint x="450" y="520" as="sourcePoint" />
            <mxPoint x="500" y="470" as="targetPoint" />
          </mxGeometry>
        </mxCell>
        <mxCell id="iGe3nFgzR7R-XXRQcmDe-28" value="include" style="text;html=1;align=center;verticalAlign=middle;resizable=0;points=[];autosize=1;strokeColor=none;fillColor=none;rotation=33;" parent="1" vertex="1">
          <mxGeometry x="540" y="525" width="60" height="30" as="geometry" />
        </mxCell>
        <mxCell id="iGe3nFgzR7R-XXRQcmDe-31" value="" style="endArrow=classic;html=1;rounded=0;" parent="1" source="iGe3nFgzR7R-XXRQcmDe-13" target="iGe3nFgzR7R-XXRQcmDe-5" edge="1">
          <mxGeometry width="50" height="50" relative="1" as="geometry">
            <mxPoint x="450" y="500" as="sourcePoint" />
            <mxPoint x="160" y="630" as="targetPoint" />
            <Array as="points">
              <mxPoint x="810" y="630" />
              <mxPoint x="480" y="630" />
              <mxPoint x="175" y="630" />
              <mxPoint x="70" y="630" />
              <mxPoint x="70" y="460" />
            </Array>
          </mxGeometry>
        </mxCell>
        <mxCell id="lKts8aZJJUEc3eBl2lUq-2" value="" style="swimlane;startSize=0;" vertex="1" parent="1">
          <mxGeometry x="240" y="370" width="540" height="250" as="geometry" />
        </mxCell>
      </root>
    </mxGraphModel>
  </diagram>
</mxfile>
